<svg version="1.1" xmlns="http://www.w3.org/2000/svg" viewBox="0 0 1479 799" width="1479" height="799" filter="invert(93%) hue-rotate(180deg)">
  <!-- svg-source:excalidraw -->
  
  <defs>
    <style class="style-fonts">
      @font-face {
        font-family: "Virgil";
        src: url("https://excalidraw.com/Virgil.woff2");
      }
      @font-face {
        font-family: "Cascadia";
        src: url("https://excalidraw.com/Cascadia.woff2");
      }
      @font-face {
        font-family: "Assistant";
        src: url("https://excalidraw.com/Assistant-Regular.woff2");
      }
    </style>
    
  </defs>
  <rect x="0" y="0" width="1479" height="799" fill="#ffffff"></rect><g stroke-linecap="round" transform="translate(10 10) rotate(0 729.5 389.5)"><path d="M32 0 C562.5 -2.12, 1093.69 -1.76, 1427 0 M32 0 C461.02 -4.94, 889.74 -4.24, 1427 0 M1427 0 C1449.73 -0.26, 1457.56 9.81, 1459 32 M1427 0 C1450.55 0.5, 1460.42 11.75, 1459 32 M1459 32 C1460.61 234.55, 1459.37 437.65, 1459 747 M1459 32 C1460.93 293.75, 1460.79 556.23, 1459 747 M1459 747 C1460.11 769.5, 1447.99 780.98, 1427 779 M1459 747 C1459.29 769.05, 1447.05 779.27, 1427 779 M1427 779 C909.44 776.34, 392.34 775.56, 32 779 M1427 779 C1138.44 780.18, 850.03 779.98, 32 779 M32 779 C12.1 780.34, -1.05 768.93, 0 747 M32 779 C11.87 779.37, 0.85 767.91, 0 747 M0 747 C1.63 554.02, 1.12 362.7, 0 32 M0 747 C0.68 536.72, 0.83 326.6, 0 32 M0 32 C-1.57 10.85, 9.16 -1.27, 32 0 M0 32 C1.45 11.98, 12.5 -1.51, 32 0" stroke="#1e1e1e" stroke-width="2" fill="none"></path></g><g stroke-linecap="round" transform="translate(642 75) rotate(0 381.5 207.5)"><path d="M32 0 C218.57 0.65, 405.35 0.75, 731 0 M32 0 C296.34 0.1, 560.56 0.25, 731 0 M731 0 C752.34 1.19, 761.74 10.48, 763 32 M731 0 C750.73 -0.45, 761.13 10.15, 763 32 M763 32 C763.86 153.52, 762.3 276.43, 763 383 M763 32 C764.27 148.33, 764.56 265.17, 763 383 M763 383 C761.86 405.33, 750.35 414.67, 731 415 M763 383 C763.85 405.31, 752.44 416.98, 731 415 M731 415 C525.72 415.82, 321.05 415.79, 32 415 M731 415 C498.89 413.33, 267.33 413.35, 32 415 M32 415 C11.44 413.97, 0.22 402.69, 0 383 M32 415 C12.8 416.84, -0.89 405.3, 0 383 M0 383 C-0.45 256.36, -0.35 131.05, 0 32 M0 383 C0.84 251.99, 0.08 121.18, 0 32 M0 32 C-0.71 9.96, 9.87 -1.51, 32 0 M0 32 C-2.1 12.73, 8.85 -0.99, 32 0" stroke="#1e1e1e" stroke-width="2" fill="none"></path></g><g transform="translate(666 91) rotate(0 44.69166564941406 12.5)"><text x="0" y="17.52" font-family="Virgil, Segoe UI Emoji" font-size="20px" fill="#1e1e1e" text-anchor="start" style="white-space: pre;" direction="ltr" dominant-baseline="alphabetic">chart div</text></g><g transform="translate(43 36) rotate(0 37.974998474121094 12.5)"><text x="0" y="17.52" font-family="Virgil, Segoe UI Emoji" font-size="20px" fill="#1e1e1e" text-anchor="start" style="white-space: pre;" direction="ltr" dominant-baseline="alphabetic">main div</text></g><g stroke-linecap="round" transform="translate(651 527) rotate(0 377 99.5)"><path d="M32 0 C200.68 -2.33, 369.71 -2.77, 722 0 M32 0 C264.1 -1.79, 496.59 -1.79, 722 0 M722 0 C745.14 0.18, 755.52 12.53, 754 32 M722 0 C741.46 -1.5, 755.04 11.09, 754 32 M754 32 C752.98 77.53, 752.71 124.56, 754 167 M754 32 C753.76 77.05, 754.79 122.21, 754 167 M754 167 C753.67 189.32, 744.17 197.99, 722 199 M754 167 C751.91 186.5, 742.8 196.81, 722 199 M722 199 C567.24 198.84, 413.59 198.55, 32 199 M722 199 C524.31 199.76, 327.03 200.41, 32 199 M32 199 C12.39 198.91, 1.76 190.23, 0 167 M32 199 C10.87 199.6, -1.94 189.09, 0 167 M0 167 C1.76 126.51, 1.65 90.48, 0 32 M0 167 C0.57 117.34, 0.62 68.22, 0 32 M0 32 C-0.64 11.48, 11.64 -0.16, 32 0 M0 32 C0.49 9.11, 11.51 -1.24, 32 0" stroke="#1e1e1e" stroke-width="2" fill="none"></path></g><g transform="translate(689 548) rotate(0 74.55000305175781 12.5)"><text x="0" y="17.52" font-family="Virgil, Segoe UI Emoji" font-size="20px" fill="#1e1e1e" text-anchor="start" style="white-space: pre;" direction="ltr" dominant-baseline="alphabetic">trading info div</text></g><g stroke-linecap="round" transform="translate(52 74) rotate(0 261 329.5)"><path d="M32 0 C143.4 -0.4, 255.67 0.08, 490 0 M32 0 C166.22 0.98, 300.13 0.96, 490 0 M490 0 C509.74 -0.1, 523.19 11.52, 522 32 M490 0 C511.42 0.76, 524.08 11.5, 522 32 M522 32 C519.63 166.66, 519.63 300.98, 522 627 M522 32 C522.91 206.92, 522.79 381.69, 522 627 M522 627 C521.93 648.41, 511.4 657.18, 490 659 M522 627 C520.93 646.39, 511.02 657.01, 490 659 M490 659 C334.15 656.93, 178.75 656.66, 32 659 M490 659 C337.11 660.37, 183.75 659.88, 32 659 M32 659 C11.91 660.19, -1.61 649.07, 0 627 M32 659 C11.34 656.91, 1 649.02, 0 627 M0 627 C-2.96 425.92, -1.67 224.9, 0 32 M0 627 C0.83 505.83, 0.59 384.34, 0 32 M0 32 C0.16 10.96, 8.68 0.22, 32 0 M0 32 C0.7 12.51, 9.97 -0.52, 32 0" stroke="#1e1e1e" stroke-width="2" fill="none"></path></g><g transform="translate(74 95) rotate(0 39.150001525878906 12.5)"><text x="0" y="17.52" font-family="Virgil, Segoe UI Emoji" font-size="20px" fill="#1e1e1e" text-anchor="start" style="white-space: pre;" direction="ltr" dominant-baseline="alphabetic">form div</text></g><g stroke-linecap="round" transform="translate(301 168) rotate(0 103 25.5)"><path d="M12.75 0 C72.26 -0.4, 126.37 -1.3, 193.25 0 M12.75 0 C60.82 -1.05, 110.19 -1.32, 193.25 0 M193.25 0 C202.61 1.51, 206.87 6, 206 12.75 M193.25 0 C203.87 -2.13, 206.35 2.88, 206 12.75 M206 12.75 C207.85 21.56, 205.68 28.82, 206 38.25 M206 12.75 C206.37 17.23, 205.41 23.35, 206 38.25 M206 38.25 C206.86 46.65, 201.99 50.35, 193.25 51 M206 38.25 C206.51 46.09, 201.4 52.83, 193.25 51 M193.25 51 C152.76 52.23, 113.65 49.59, 12.75 51 M193.25 51 C155.46 52.36, 119.11 52.91, 12.75 51 M12.75 51 C3.73 51.99, -0.92 47.03, 0 38.25 M12.75 51 C6.39 51.61, 0.59 47.62, 0 38.25 M0 38.25 C1.09 32.9, -1.72 27.04, 0 12.75 M0 38.25 C-0.1 31.84, 0.35 24.97, 0 12.75 M0 12.75 C0.31 3.73, 3.14 -1.88, 12.75 0 M0 12.75 C0.48 6.53, 2.95 2.1, 12.75 0" stroke="#1e1e1e" stroke-width="2" fill="none"></path></g><g transform="translate(113 179) rotate(0 35.18333435058594 12.5)"><text x="0" y="17.52" font-family="Virgil, Segoe UI Emoji" font-size="20px" fill="#1e1e1e" text-anchor="start" style="white-space: pre;" direction="ltr" dominant-baseline="alphabetic">Capital</text></g><g stroke-linecap="round" transform="translate(293 254) rotate(0 107 25.5)"><path d="M12.75 0 C79.22 2.71, 143.45 -0.11, 201.25 0 M12.75 0 C53.91 1.86, 96.57 1.72, 201.25 0 M201.25 0 C211.52 -0.31, 212.26 2.26, 214 12.75 M201.25 0 C208.66 1.83, 215.36 4.62, 214 12.75 M214 12.75 C214.62 21.7, 215.62 33.34, 214 38.25 M214 12.75 C214.37 22.75, 214.29 31.29, 214 38.25 M214 38.25 C213.12 48.61, 211.16 52.47, 201.25 51 M214 38.25 C213.37 47.22, 210.45 50.65, 201.25 51 M201.25 51 C134.94 50.94, 65.53 51.44, 12.75 51 M201.25 51 C159.79 48.97, 119.28 50.57, 12.75 51 M12.75 51 C4.25 49.23, 0.38 48.04, 0 38.25 M12.75 51 C2.88 48.77, 1.41 46.13, 0 38.25 M0 38.25 C0.09 28.78, -0.84 19.73, 0 12.75 M0 38.25 C-0.94 31.45, 0.28 25.74, 0 12.75 M0 12.75 C0.31 4.82, 3.19 1.11, 12.75 0 M0 12.75 C1 3.04, 5.11 -0.29, 12.75 0" stroke="#1e1e1e" stroke-width="2" fill="none"></path></g><g transform="translate(113 265) rotate(0 43.599998474121094 12.5)"><text x="0" y="17.52" font-family="Virgil, Segoe UI Emoji" font-size="20px" fill="#1e1e1e" text-anchor="start" style="white-space: pre;" direction="ltr" dominant-baseline="alphabetic">Leverage</text></g><g stroke-linecap="round" transform="translate(289 334) rotate(0 109 25.5)"><path d="M12.75 0 C69.8 0.48, 124.95 2.88, 205.25 0 M12.75 0 C66.34 1.22, 118.4 -0.14, 205.25 0 M205.25 0 C211.86 0.92, 218.83 2.63, 218 12.75 M205.25 0 C215.19 0.41, 218.32 3.01, 218 12.75 M218 12.75 C216.64 17.11, 217.28 26.46, 218 38.25 M218 12.75 C217.82 20.84, 217.86 30.12, 218 38.25 M218 38.25 C218.67 47.62, 214.58 49.93, 205.25 51 M218 38.25 C217.05 45.37, 211.94 50.73, 205.25 51 M205.25 51 C148.36 52.76, 91.64 49.93, 12.75 51 M205.25 51 C157.1 51.99, 109.32 52.26, 12.75 51 M12.75 51 C3.63 52.08, -0.48 47.22, 0 38.25 M12.75 51 C2.2 50.37, 0.87 47.59, 0 38.25 M0 38.25 C0.98 31.04, 0.65 25.19, 0 12.75 M0 38.25 C0.37 28.43, 1.03 19.32, 0 12.75 M0 12.75 C0.2 4.02, 4.19 -1.02, 12.75 0 M0 12.75 C1.56 4.38, 3.31 -0.58, 12.75 0" stroke="#1e1e1e" stroke-width="2" fill="none"></path></g><g transform="translate(113 345) rotate(0 71.75 12.5)"><text x="0" y="17.52" font-family="Virgil, Segoe UI Emoji" font-size="20px" fill="#1e1e1e" text-anchor="start" style="white-space: pre;" direction="ltr" dominant-baseline="alphabetic">Risk per trade</text></g><g stroke-linecap="round" transform="translate(293 409) rotate(0 106.5 25.5)"><path d="M12.75 0 C62.04 -0.88, 109.2 -1.14, 200.25 0 M12.75 0 C58.58 0.23, 103.43 -0.27, 200.25 0 M200.25 0 C210.47 0.62, 212.45 2.83, 213 12.75 M200.25 0 C210.88 1.53, 212.11 2.64, 213 12.75 M213 12.75 C213 21.03, 212.43 30.79, 213 38.25 M213 12.75 C213.45 21.59, 213.64 31.01, 213 38.25 M213 38.25 C212.63 47.8, 208.4 50.9, 200.25 51 M213 38.25 C215.25 45.01, 210.62 48.93, 200.25 51 M200.25 51 C145.32 50.13, 87.56 47.46, 12.75 51 M200.25 51 C132.98 48.78, 66.68 49.59, 12.75 51 M12.75 51 C4.38 50.37, -1.3 46.4, 0 38.25 M12.75 51 C5.22 49.95, 0.73 46.23, 0 38.25 M0 38.25 C1.67 32.15, 1.52 27.53, 0 12.75 M0 38.25 C-0.83 31.31, 0.1 24.35, 0 12.75 M0 12.75 C1.53 5.96, 5.98 -0.11, 12.75 0 M0 12.75 C0.61 4.29, 3.32 -0.78, 12.75 0" stroke="#1e1e1e" stroke-width="2" fill="none"></path></g><g stroke-linecap="round" transform="translate(295 476) rotate(0 106.5 25.5)"><path d="M12.75 0 C52.11 -2.02, 92.86 0, 200.25 0 M12.75 0 C60.56 0.45, 108.07 -0.48, 200.25 0 M200.25 0 C210.67 -0.94, 213.88 3.69, 213 12.75 M200.25 0 C210.4 -0.74, 212.81 5.36, 213 12.75 M213 12.75 C212.57 20.08, 211.82 30.68, 213 38.25 M213 12.75 C212.94 21.77, 213.7 29.62, 213 38.25 M213 38.25 C213.14 48.05, 210.39 52.38, 200.25 51 M213 38.25 C213.77 46.45, 208.78 51.52, 200.25 51 M200.25 51 C126.98 52.62, 50.72 51.57, 12.75 51 M200.25 51 C132.97 52.67, 67.38 53.06, 12.75 51 M12.75 51 C4.38 51.77, -1.8 45.43, 0 38.25 M12.75 51 C5.02 49.68, -1.08 46.83, 0 38.25 M0 38.25 C1.08 30.82, -1.24 18.94, 0 12.75 M0 38.25 C-0.3 27.96, 0.84 18.74, 0 12.75 M0 12.75 C-1.55 2.72, 5.96 0.53, 12.75 0 M0 12.75 C1.39 5.37, 5.87 0.16, 12.75 0" stroke="#1e1e1e" stroke-width="2" fill="none"></path></g><g stroke-linecap="round" transform="translate(293 541) rotate(0 106.5 25.5)"><path d="M12.75 0 C68.48 -0.92, 128.08 -0.98, 200.25 0 M12.75 0 C72.68 -0.34, 133.33 -1.93, 200.25 0 M200.25 0 C207.88 1.07, 211.68 3.15, 213 12.75 M200.25 0 C209.02 -2.02, 211.83 6.49, 213 12.75 M213 12.75 C214.81 23.33, 212.95 32.41, 213 38.25 M213 12.75 C213.13 18.78, 212.04 25.01, 213 38.25 M213 38.25 C212.45 47.83, 208.98 52.54, 200.25 51 M213 38.25 C211 45.41, 210.49 50.38, 200.25 51 M200.25 51 C141.81 50.54, 84.6 51.6, 12.75 51 M200.25 51 C155.16 51.23, 110.97 52, 12.75 51 M12.75 51 C4.41 49.72, 0.31 45.23, 0 38.25 M12.75 51 C4.98 49.69, 0.09 45.43, 0 38.25 M0 38.25 C0.49 30.3, -1.6 22.12, 0 12.75 M0 38.25 C0.02 29.92, 0.18 19.2, 0 12.75 M0 12.75 C0.22 5.75, 4.95 1.15, 12.75 0 M0 12.75 C-2.29 4.94, 2.26 -2.11, 12.75 0" stroke="#1e1e1e" stroke-width="2" fill="none"></path></g><g transform="translate(105 423) rotate(0 86.91666412353516 12.5)"><text x="0" y="17.52" font-family="Virgil, Segoe UI Emoji" font-size="20px" fill="#1e1e1e" text-anchor="start" style="white-space: pre;" direction="ltr" dominant-baseline="alphabetic">Number of trades</text></g><g transform="translate(105 490) rotate(0 86.14167022705078 12.5)"><text x="0" y="17.52" font-family="Virgil, Segoe UI Emoji" font-size="20px" fill="#1e1e1e" text-anchor="start" style="white-space: pre;" direction="ltr" dominant-baseline="alphabetic">Risk/reward ratio</text></g><g transform="translate(102 555) rotate(0 77.50833129882812 12.5)"><text x="0" y="17.52" font-family="Virgil, Segoe UI Emoji" font-size="20px" fill="#1e1e1e" text-anchor="start" style="white-space: pre;" direction="ltr" dominant-baseline="alphabetic">Asset to trade</text></g><g stroke-linecap="round" transform="translate(190 633) rotate(0 103.5 25.31654676258995)"><path d="M12.66 0 C63.55 0.02, 114.3 -0.83, 194.34 0 M12.66 0 C82.65 -0.35, 151.51 -1.46, 194.34 0 M194.34 0 C202.95 0.8, 207.8 2.35, 207 12.66 M194.34 0 C204.51 1.71, 207.72 4.07, 207 12.66 M207 12.66 C205.69 19.46, 206.4 25.55, 207 37.97 M207 12.66 C207.97 21.87, 206.53 30.05, 207 37.97 M207 37.97 C208.53 47.46, 202.42 51.39, 194.34 50.63 M207 37.97 C208.22 46.99, 201.03 51.75, 194.34 50.63 M194.34 50.63 C148.77 51.32, 106 50.94, 12.66 50.63 M194.34 50.63 C135.61 48.79, 78.48 50.2, 12.66 50.63 M12.66 50.63 C2.9 52.41, -0.16 45.17, 0 37.97 M12.66 50.63 C3.71 51.91, -0.32 45.69, 0 37.97 M0 37.97 C-1.44 29.92, -1.81 26.3, 0 12.66 M0 37.97 C0.97 30.3, -0.62 21.01, 0 12.66 M0 12.66 C-1.13 5.92, 5.94 1.55, 12.66 0 M0 12.66 C-0.72 5.89, 3.86 -2.27, 12.66 0" stroke="#1e1e1e" stroke-width="2" fill="none"></path></g><g transform="translate(257.7589928057554 648.636690647482) rotate(0 30.31159977261109 9.30755395683451)"><text x="0" y="13.045467625899283" font-family="Virgil, Segoe UI Emoji" font-size="14.892086330935253px" fill="#1e1e1e" text-anchor="start" style="white-space: pre;" direction="ltr" dominant-baseline="alphabetic">Simulate</text></g><g transform="translate(337 554) rotate(0 45.70833206176758 12.5)"><text x="0" y="17.52" font-family="Virgil, Segoe UI Emoji" font-size="20px" fill="#1e1e1e" text-anchor="start" style="white-space: pre;" direction="ltr" dominant-baseline="alphabetic">XAU/USD</text></g><g stroke-linecap="round" transform="translate(461 552) rotate(0 13.5 16.5)"><path d="M17.5 4.25 C19.2 5.19, 20.95 8.32, 23.5 12.75 M17.5 4.25 C19.14 7.39, 21.24 9.31, 23.5 12.75 M23.5 12.75 C28.79 17.16, 26.96 18.05, 23.5 21.25 M23.5 12.75 C27.8 17.77, 27.19 17.35, 23.5 21.25 M23.5 21.25 C21.42 23.41, 21.3 24.36, 17.5 28.75 M23.5 21.25 C21.25 23.32, 19.42 25.42, 17.5 28.75 M17.5 28.75 C13.06 31.14, 13.97 31.66, 10.5 28.75 M17.5 28.75 C14.6 32.07, 12.91 34.53, 10.5 28.75 M10.5 28.75 C8.55 26.88, 5.29 23.3, 3.5 21.25 M10.5 28.75 C8.31 26.58, 6.54 23.81, 3.5 21.25 M3.5 21.25 C1 17.72, -1.43 18.69, 3.5 12.75 M3.5 21.25 C-0.39 16.23, -1.19 17.36, 3.5 12.75 M3.5 12.75 C4.33 11.26, 5.21 9.59, 10.5 4.25 M3.5 12.75 C5.55 10.07, 7.84 8.02, 10.5 4.25 M10.5 4.25 C13.99 -0.69, 15.33 1.1, 17.5 4.25 M10.5 4.25 C12.77 -1.75, 14.04 -2.23, 17.5 4.25" stroke="#1e1e1e" stroke-width="2" fill="none"></path></g><g transform="translate(674 598) rotate(0 40.99166488647461 12.5)"><text x="0" y="17.52" font-family="Virgil, Segoe UI Emoji" font-size="20px" fill="#1e1e1e" text-anchor="start" style="white-space: pre;" direction="ltr" dominant-baseline="alphabetic">Lot size</text></g><g transform="translate(673 644) rotate(0 60.96666717529297 12.5)"><text x="0" y="17.52" font-family="Virgil, Segoe UI Emoji" font-size="20px" fill="#1e1e1e" text-anchor="start" style="white-space: pre;" direction="ltr" dominant-baseline="alphabetic">Average PnL</text></g><g transform="translate(1075 601) rotate(0 46.25 12.5)"><text x="0" y="17.52" font-family="Virgil, Segoe UI Emoji" font-size="20px" fill="#1e1e1e" text-anchor="start" style="white-space: pre;" direction="ltr" dominant-baseline="alphabetic">Stop loss</text></g><g transform="translate(1078 647) rotate(0 57.516666412353516 12.5)"><text x="0" y="17.52" font-family="Virgil, Segoe UI Emoji" font-size="20px" fill="#1e1e1e" text-anchor="start" style="white-space: pre;" direction="ltr" dominant-baseline="alphabetic">Take profit</text></g></svg>