<svg xmlns="http://www.w3.org/2000/svg" xmlns:xlink="http://www.w3.org/1999/xlink" xmlns:lucid="lucid" width="1211.67" height="965.54"><g transform="translate(-669.1254450240395 -1376.950156647517)" lucid:page-tab-id="0_0"><path d="M500 1000h1500v1500H500z" fill="#fff"/><path d="M730.13 1525.02l.28.03.3.06.26.12.24.15.22.2.2.2.14.25.1.27.08.27.02.3v10m0 10.04v20.06m0 10.03v20.05m0 10.02v20.06m0 10.02v20.06m0 10.03v20.06m0 10.02v20.05m0 10.03v20.05m0 10.03v20.05m0 10.03v20.06m0 10.02v20.06m0 10.02v20.06m0 10.03v20.06m0 10.03v20.04m0 10.03v20.05m0 10.03v20.06m0 10.03v20.06m0 10v20.07m0 10.03v20.05m0 10.03v20.05m0 10.03v20.05m0 10.04v20.05m0 10.02v20.06m0 10.02v20.06m0 10.02v20.06m0 10.02v20.06m0 10.03V2319m0 10.03v10.02M730.14 1525.02h-3.5M731.96 2339.04v.5M1043.6 1519.95v10m0 10.02V1560m0 10v20.02m0 10v20.03m0 10v20.03m0 10.02v20.02m0 10v20.03m0 10v20.03m0 10v20.03m0 10.02v20.02m0 10v20.03m0 10v20.03m0 10v20.03m0 10v20.03m0 10v20.03m0 10v20.02m0 10v20.04m0 10v20.03m0 10v20.02m0 10v20.03m0 10v20.03m0 10v20.03m0 10.02v20.02m0 10v20.03m0 10v20.03m0 10v20.03m0 10v20.03m0 10.02v10" stroke="#333" fill="none"/><path d="M1044.06 1519.96h-.95v-.5h.96z" stroke="#333" stroke-width=".05" fill="#333"/><path d="M1043.6 2330.77v.52" stroke="#333" fill="none"/><path d="M1024.66 1595.18a8 8 0 0 1 8-8h24a8 8 0 0 1 8 8v693.55a8 8 0 0 1-8 8h-24a8 8 0 0 1-8-8z" stroke="#f2f2f2" fill="#ced4db"/><path d="M1404.42 1519.95v9.76m0 9.77V1559m0 9.76v19.53m0 9.75v19.52m0 9.77v19.52m0 9.76v19.53m0 9.76v19.54m0 9.76v19.52m0 9.76V1764m0 9.77v19.53m0 9.76v19.52m0 9.77v19.52m0 9.76v19.53m0 9.76v19.53m0 9.76v19.53m0 9.76V1969m0 9.76v19.53m0 9.77v19.52m0 9.76v19.52m0 9.76v19.53m0 9.76v19.53m0 9.76v19.52m0 9.77v19.53m0 9.76v19.52m0 9.76v19.52m0 9.77v19.52m0 9.75v19.53m0 9.76v19.53m0 9.76v9.76" stroke="#333" fill="none"/><path d="M1404.9 1519.96h-.95v-.5h.95z" stroke="#333" stroke-width=".05" fill="#333"/><path d="M1404.42 2339.98v.5" stroke="#333" fill="none"/><path d="M1384.42 1654.85a8 8 0 0 1 8-8h24a8 8 0 0 1 8 8v633.88a8 8 0 0 1-8 8h-24a8 8 0 0 1-8-8z" stroke="#f2f2f2" fill="#ced4db"/><path d="M1765.26 1519.95v9.84m0 9.83v19.7m0 9.83v19.68m0 9.85v19.67m0 9.84v19.7m0 9.84v19.68m0 9.85v19.68m0 9.84v19.68m0 9.84V1766m0 9.85v19.68m0 9.84v19.7m0 9.83v19.68m0 9.85v9.84l-.04.4-.1.4-.15.4-.22.34-.26.33-.33.26-.35.2-.38.17-.4.1-.4.03-.42.03-.4.1-.38.15-.36.22-.3.27-.28.3-.2.36-.17.38-.1.4-.03.43v9.84m0 9.84v19.7m0 9.84v19.68m0 9.84v19.7m0 9.83v19.67m0 9.85V2037m0 9.84v19.7m0 9.83v19.68m0 9.84v19.68m0 9.84v19.7m0 9.83v19.68m0 9.84v19.7m0 9.83v9.84" stroke="#333" fill="none"/><path d="M1765.73 1519.96h-.95v-.5h.95z" stroke="#333" stroke-width=".05" fill="#333"/><path d="M1760 2233.83v3.5" stroke="#333" fill="none"/><path d="M1744.18 1848a8 8 0 0 1 8-8h24a8 8 0 0 1 8 8v261.45a8 8 0 0 1-8 8h-24a8 8 0 0 1-8-8z" stroke="#f2f2f2" fill="#ced4db"/><path d="M948.55 1405.45a8 8 0 0 1 8-8h174.08a8 8 0 0 1 8 8v106a8 8 0 0 1-8 8H956.55a8 8 0 0 1-8-8z" stroke="#000" stroke-opacity="0" fill="#6db1ff"/><use xlink:href="#a" transform="matrix(1,0,0,1,956.5508274182996,1405.450156647517) translate(68.46296296296296 56.55555555555556)"/><path d="M1309.38 1405.45a8 8 0 0 1 8-8h174.08a8 8 0 0 1 8 8v106a8 8 0 0 1-8 8h-174.08a8 8 0 0 1-8-8z" stroke="#000" stroke-opacity="0" fill="#6db1ff"/><use xlink:href="#b" transform="matrix(1,0,0,1,1317.3848257465197,1405.450156647517) translate(49.10493827160493 56.55555555555555)"/><path d="M1670.22 1405.45a8 8 0 0 1 8-8h174.07a8 8 0 0 1 8 8v106a8 8 0 0 1-8 8H1678.2a8 8 0 0 1-8-8z" stroke="#000" stroke-opacity="0" fill="#6db1ff"/><use xlink:href="#c" transform="matrix(1,0,0,1,1678.2188240747391,1405.450156647517) translate(46.117283950617285 56.55555555555555)"/><path d="M749.38 1449.04c0 10.9-8.85 19.75-19.75 19.75s-19.75-8.86-19.75-19.76c0-10.9 8.84-19.75 19.75-19.75 10.9 0 19.75 8.83 19.75 19.74z" stroke="#333" fill="#fff"/><path d="M729.63 1468.8v47.3a27.6 27.6 0 0 0 4.27 14.75l35.73 56.44m-40-63.2l-40 63.2m0-98.76h80" stroke="#333" fill="none"/><path d="M689.63 1437.3a8 8 0 0 1 8-8h64a8 8 0 0 1 8 8v164a8 8 0 0 1-8 8h-64a8 8 0 0 1-8-8z" fill="none"/><use xlink:href="#d" transform="matrix(1,0,0,1,609.6254450240395,1587.2871831557754) translate(99.28395061728395 14.555555555555555)"/><path d="M732.46 1673.12h275.32M732.47 1673.12h-.5" stroke="#333" fill="none"/><path d="M1022.54 1673.12l-14.26 4.63v-9.27z" stroke="#333" fill="#333"/><use xlink:href="#e" transform="matrix(1,0,0,1,815.3935785833296,1677.1158556872674) translate(0.005000000000002558 14.222222222222223)"/><use xlink:href="#f" transform="matrix(1,0,0,1,815.3935785833296,1677.1158556872674) translate(47.363024691358035 14.222222222222223)"/><use xlink:href="#g" transform="matrix(1,0,0,1,815.3935785833296,1677.1158556872674) translate(90.77043209876544 14.222222222222223)"/><path d="M1065.66 1697.65h301.88" stroke="#3a414a" fill="none"/><path d="M1065.67 1698.13h-.5v-.95h.5z" stroke="#3a414a" stroke-width=".05" fill="#3a414a"/><path d="M1382.3 1697.65l-14.26 4.64V1693z" stroke="#3a414a" fill="#3a414a"/><use xlink:href="#h" transform="matrix(1,0,0,1,1146.3171746806975,1672.0524997236323) translate(0.0049999999999954525 14.4)"/><use xlink:href="#i" transform="matrix(1,0,0,1,1146.3171746806975,1672.0524997236323) translate(68.55499999999999 14.4)"/><use xlink:href="#j" transform="matrix(1,0,0,1,1146.3171746806975,1672.0524997236323) translate(108.505 14.4)"/><path d="M1383.42 1771.4h-27.5a12 12 0 0 0-12 12v43.24a12 12 0 0 0 12 12h11.62" stroke="#3a414a" fill="none"/><path d="M1383.92 1771.86h-.5v-.95h.5z" stroke="#3a414a" stroke-width=".05" fill="#3a414a"/><path d="M1382.3 1838.64l-14.26 4.64V1834z" stroke="#3a414a" fill="#3a414a"/><use xlink:href="#k" transform="matrix(1,0,0,1,1259.097463196964,1780.0233843858905) translate(0.0049999999999954525 14.4)"/><use xlink:href="#l" transform="matrix(1,0,0,1,1259.097463196964,1780.0233843858905) translate(68.855 14.4)"/><use xlink:href="#m" transform="matrix(1,0,0,1,1259.097463196964,1780.0233843858905) translate(155.805 14.4)"/><path d="M1425.42 1870.24h301.88" stroke="#3a414a" fill="none"/><path d="M1425.43 1870.72h-.5v-.95h.5z" stroke="#3a414a" stroke-width=".05" fill="#3a414a"/><path d="M1742.06 1870.24l-14.26 4.64v-9.27z" stroke="#3a414a" fill="#3a414a"/><use xlink:href="#n" transform="matrix(1,0,0,1,1491.8776469502966,1844.6424913374076) translate(0.0049999999999954525 14.4)"/><use xlink:href="#o" transform="matrix(1,0,0,1,1491.8776469502966,1844.6424913374076) translate(47.004999999999995 14.4)"/><use xlink:href="#p" transform="matrix(1,0,0,1,1491.8776469502966,1844.6424913374076) translate(132.905 14.4)"/><path d="M1743.18 1926.96h-27.5a12 12 0 0 0-12 12v42.44a12 12 0 0 0 12 12h11.62" stroke="#3a414a" fill="none"/><path d="M1743.68 1927.44h-.5v-.95h.5z" stroke="#3a414a" stroke-width=".05" fill="#3a414a"/><path d="M1742.07 1993.4l-14.27 4.64v-9.27z" stroke="#3a414a" fill="#3a414a"/><use xlink:href="#q" transform="matrix(1,0,0,1,1641.8329368029663,1935.5974607787382) translate(0.0049999999999954525 14.4)"/><use xlink:href="#r" transform="matrix(1,0,0,1,1641.8329368029663,1935.5974607787382) translate(37.955 14.4)"/><use xlink:href="#s" transform="matrix(1,0,0,1,1641.8329368029663,1935.5974607787382) translate(122.905 14.4)"/><path d="M1743.18 2049.3H1441.3" stroke="#3a414a" fill="none"/><path d="M1743.68 2049.8h-.5v-.96h.5z" stroke="#3a414a" stroke-width=".05" fill="#3a414a"/><path d="M1426.54 2049.3l14.27-4.62v9.27z" stroke="#3a414a" fill="#3a414a"/><use xlink:href="#t" transform="matrix(1,0,0,1,1455.9776953211806,2053.314734550717) translate(0.0049999999999954525 14.4)"/><use xlink:href="#u" transform="matrix(1,0,0,1,1455.9776953211806,2053.314734550717) translate(58.905 14.4)"/><use xlink:href="#v" transform="matrix(1,0,0,1,1455.9776953211806,2053.314734550717) translate(104.805 14.4)"/><use xlink:href="#w" transform="matrix(1,0,0,1,1455.9776953211806,2053.314734550717) translate(124.805 14.4)"/><use xlink:href="#x" transform="matrix(1,0,0,1,1455.9776953211806,2053.314734550717) translate(181.755 14.4)"/><use xlink:href="#y" transform="matrix(1,0,0,1,1455.9776953211806,2053.314734550717) translate(207.70499999999998 14.4)"/><path d="M1383.42 2082.54h-301.88" stroke="#3a414a" fill="none"/><path d="M1383.92 2083h-.5v-.94h.5z" stroke="#3a414a" stroke-width=".05" fill="#3a414a"/><path d="M1066.78 2082.54l14.27-4.64v9.27z" stroke="#3a414a" fill="#3a414a"/><use xlink:href="#n" transform="matrix(1,0,0,1,1131.1672327869314,2086.536282299063) translate(0.0049999999999954525 14.4)"/><use xlink:href="#z" transform="matrix(1,0,0,1,1131.1672327869314,2086.536282299063) translate(47.004999999999995 14.4)"/><use xlink:href="#A" transform="matrix(1,0,0,1,1131.1672327869314,2086.536282299063) translate(97.955 14.4)"/><path d="M1023.66 2125.48H748.34" stroke="#3a414a" fill="none"/><path d="M1024.16 2125.96h-.5v-.95h.5z" stroke="#3a414a" stroke-width=".05" fill="#3a414a"/><path d="M733.58 2125.48l14.26-4.63v9.27z" stroke="#3a414a" fill="#3a414a"/><g><use xlink:href="#B" transform="matrix(1,0,0,1,803.4852810119694,2129.4812099932437) translate(0.0049999999999954525 14.4)"/><use xlink:href="#C" transform="matrix(1,0,0,1,803.4852810119694,2129.4812099932437) translate(63.855000000000004 14.4)"/><use xlink:href="#y" transform="matrix(1,0,0,1,803.4852810119694,2129.4812099932437) translate(100.20500000000001 14.4)"/></g><path d="M1383.42 2148.17h-301.87" stroke="#3a414a" fill="none"/><path d="M1383.92 2148.64h-.5v-.95h.5z" stroke="#3a414a" stroke-width=".05" fill="#3a414a"/><path d="M1066.78 2148.17l14.27-4.64v9.27z" stroke="#3a414a" fill="#3a414a"/><g><use xlink:href="#n" transform="matrix(1,0,0,1,1126.6922426955734,2152.1690965064136) translate(0.0049999999999954525 14.4)"/><use xlink:href="#D" transform="matrix(1,0,0,1,1126.6922426955734,2152.1690965064136) translate(47.004999999999995 14.4)"/><use xlink:href="#A" transform="matrix(1,0,0,1,1126.6922426955734,2152.1690965064136) translate(106.905 14.4)"/></g><path d="M1023.66 2197.6H748.34" stroke="#3a414a" fill="none"/><path d="M1024.16 2198.07h-.5v-.95h.5z" stroke="#3a414a" stroke-width=".05" fill="#3a414a"/><path d="M733.58 2197.6l14.26-4.64v9.27z" stroke="#3a414a" fill="#3a414a"/><g><use xlink:href="#B" transform="matrix(1,0,0,1,771.7852862109256,2201.5962766365506) translate(0.0049999999999954525 14.4)"/><use xlink:href="#D" transform="matrix(1,0,0,1,771.7852862109256,2201.5962766365506) translate(63.855000000000004 14.4)"/><use xlink:href="#A" transform="matrix(1,0,0,1,771.7852862109256,2201.5962766365506) translate(123.755 14.4)"/></g><path d="M1720 2208a8 8 0 0 1 8-8h64a8 8 0 0 1 8 8v64a8 8 0 0 1-8 8h-64a8 8 0 0 1-8-8z" fill="none"/><path d="M1728 2208l64 64m0-64l-64 64" stroke="#3a414a" stroke-width="8" fill="none"/><defs><path d="M137 0h-34L2-248h35l83 218 83-218h36" id="E"/><path d="M24-231v-30h32v30H24zM24 0v-190h32V0H24" id="F"/><path d="M100-194c63 0 86 42 84 106H49c0 40 14 67 53 68 26 1 43-12 49-29l28 8c-11 28-37 45-77 45C44 4 14-33 15-96c1-61 26-98 85-98zm52 81c6-60-76-77-97-28-3 7-6 17-6 28h103" id="G"/><path d="M206 0h-36l-40-164L89 0H53L-1-190h32L70-26l43-164h34l41 164 42-164h31" id="H"/><g id="a"><use transform="matrix(0.049382716049382706,0,0,0.049382716049382706,0,0)" xlink:href="#E"/><use transform="matrix(0.049382716049382706,0,0,0.049382716049382706,11.50617283950617,0)" xlink:href="#F"/><use transform="matrix(0.049382716049382706,0,0,0.049382716049382706,15.407407407407405,0)" xlink:href="#G"/><use transform="matrix(0.049382716049382706,0,0,0.049382716049382706,25.283950617283946,0)" xlink:href="#H"/></g><path d="M212-179c-10-28-35-45-73-45-59 0-87 40-87 99 0 60 29 101 89 101 43 0 62-24 78-52l27 14C228-24 195 4 139 4 59 4 22-46 18-125c-6-104 99-153 187-111 19 9 31 26 39 46" id="I"/><path d="M100-194c62-1 85 37 85 99 1 63-27 99-86 99S16-35 15-95c0-66 28-99 85-99zM99-20c44 1 53-31 53-75 0-43-8-75-51-75s-53 32-53 75 10 74 51 75" id="J"/><path d="M117-194c89-4 53 116 60 194h-32v-121c0-31-8-49-39-48C34-167 62-67 57 0H25l-1-190h30c1 10-1 24 2 32 11-22 29-35 61-36" id="K"/><path d="M59-47c-2 24 18 29 38 22v24C64 9 27 4 27-40v-127H5v-23h24l9-43h21v43h35v23H59v120" id="L"/><path d="M114-163C36-179 61-72 57 0H25l-1-190h30c1 12-1 29 2 39 6-27 23-49 58-41v29" id="M"/><path d="M24 0v-261h32V0H24" id="N"/><g id="b"><use transform="matrix(0.04938271604938272,0,0,0.04938271604938272,0,0)" xlink:href="#I"/><use transform="matrix(0.04938271604938272,0,0,0.04938271604938272,12.790123456790125,0)" xlink:href="#J"/><use transform="matrix(0.04938271604938272,0,0,0.04938271604938272,22.66666666666667,0)" xlink:href="#K"/><use transform="matrix(0.04938271604938272,0,0,0.04938271604938272,32.543209876543216,0)" xlink:href="#L"/><use transform="matrix(0.04938271604938272,0,0,0.04938271604938272,37.48148148148149,0)" xlink:href="#M"/><use transform="matrix(0.04938271604938272,0,0,0.04938271604938272,43.35802469135803,0)" xlink:href="#J"/><use transform="matrix(0.04938271604938272,0,0,0.04938271604938272,53.23456790123457,0)" xlink:href="#N"/><use transform="matrix(0.04938271604938272,0,0,0.04938271604938272,57.135802469135804,0)" xlink:href="#N"/><use transform="matrix(0.04938271604938272,0,0,0.04938271604938272,61.037037037037045,0)" xlink:href="#G"/><use transform="matrix(0.04938271604938272,0,0,0.04938271604938272,70.9135802469136,0)" xlink:href="#M"/></g><path d="M185-189c-5-48-123-54-124 2 14 75 158 14 163 119 3 78-121 87-175 55-17-10-28-26-33-46l33-7c5 56 141 63 141-1 0-78-155-14-162-118-5-82 145-84 179-34 5 7 8 16 11 25" id="O"/><path d="M210-169c-67 3-38 105-44 169h-31v-121c0-29-5-50-35-48C34-165 62-65 56 0H25l-1-190h30c1 10-1 24 2 32 10-44 99-50 107 0 11-21 27-35 58-36 85-2 47 119 55 194h-31v-121c0-29-5-49-35-48" id="P"/><path d="M84 4C-5 8 30-112 23-190h32v120c0 31 7 50 39 49 72-2 45-101 50-169h31l1 190h-30c-1-10 1-25-2-33-11 22-28 36-60 37" id="Q"/><path d="M141-36C126-15 110 5 73 4 37 3 15-17 15-53c-1-64 63-63 125-63 3-35-9-54-41-54-24 1-41 7-42 31l-33-3c5-37 33-52 76-52 45 0 72 20 72 64v82c-1 20 7 32 28 27v20c-31 9-61-2-59-35zM48-53c0 20 12 33 32 33 41-3 63-29 60-74-43 2-92-5-92 41" id="R"/><g id="c"><use transform="matrix(0.04938271604938272,0,0,0.04938271604938272,0,0)" xlink:href="#O"/><use transform="matrix(0.04938271604938272,0,0,0.04938271604938272,11.851851851851853,0)" xlink:href="#F"/><use transform="matrix(0.04938271604938272,0,0,0.04938271604938272,15.753086419753087,0)" xlink:href="#P"/><use transform="matrix(0.04938271604938272,0,0,0.04938271604938272,30.518518518518523,0)" xlink:href="#Q"/><use transform="matrix(0.04938271604938272,0,0,0.04938271604938272,40.39506172839506,0)" xlink:href="#N"/><use transform="matrix(0.04938271604938272,0,0,0.04938271604938272,44.2962962962963,0)" xlink:href="#R"/><use transform="matrix(0.04938271604938272,0,0,0.04938271604938272,54.17283950617284,0)" xlink:href="#L"/><use transform="matrix(0.04938271604938272,0,0,0.04938271604938272,59.111111111111114,0)" xlink:href="#F"/><use transform="matrix(0.04938271604938272,0,0,0.04938271604938272,63.01234567901235,0)" xlink:href="#J"/><use transform="matrix(0.04938271604938272,0,0,0.04938271604938272,72.88888888888889,0)" xlink:href="#K"/></g><path fill="#3a414a" d="M205 0l-28-72H64L36 0H1l101-248h38L239 0h-34zm-38-99l-47-123c-12 45-31 82-46 123h93" id="S"/><path fill="#3a414a" d="M96-169c-40 0-48 33-48 73s9 75 48 75c24 0 41-14 43-38l32 2c-6 37-31 61-74 61-59 0-76-41-82-99-10-93 101-131 147-64 4 7 5 14 7 22l-32 3c-4-21-16-35-41-35" id="T"/><path fill="#3a414a" d="M59-47c-2 24 18 29 38 22v24C64 9 27 4 27-40v-127H5v-23h24l9-43h21v43h35v23H59v120" id="U"/><path fill="#3a414a" d="M100-194c62-1 85 37 85 99 1 63-27 99-86 99S16-35 15-95c0-66 28-99 85-99zM99-20c44 1 53-31 53-75 0-43-8-75-51-75s-53 32-53 75 10 74 51 75" id="V"/><path fill="#3a414a" d="M114-163C36-179 61-72 57 0H25l-1-190h30c1 12-1 29 2 39 6-27 23-49 58-41v29" id="W"/><g id="d"><use transform="matrix(0.04938271604938272,0,0,0.04938271604938272,0,0)" xlink:href="#S"/><use transform="matrix(0.04938271604938272,0,0,0.04938271604938272,11.851851851851853,0)" xlink:href="#T"/><use transform="matrix(0.04938271604938272,0,0,0.04938271604938272,20.74074074074074,0)" xlink:href="#U"/><use transform="matrix(0.04938271604938272,0,0,0.04938271604938272,25.679012345679016,0)" xlink:href="#V"/><use transform="matrix(0.04938271604938272,0,0,0.04938271604938272,35.55555555555556,0)" xlink:href="#W"/></g><path fill="#3a414a" d="M30 0v-248h187v28H63v79h144v27H63v87h162V0H30" id="X"/><path fill="#3a414a" d="M117-194c89-4 53 116 60 194h-32v-121c0-31-8-49-39-48C34-167 62-67 57 0H25l-1-190h30c1 10-1 24 2 32 11-22 29-35 61-36" id="Y"/><path fill="#3a414a" d="M100-194c63 0 86 42 84 106H49c0 40 14 67 53 68 26 1 43-12 49-29l28 8c-11 28-37 45-77 45C44 4 14-33 15-96c1-61 26-98 85-98zm52 81c6-60-76-77-97-28-3 7-6 17-6 28h103" id="Z"/><g id="e"><use transform="matrix(0.04938271604938272,0,0,0.04938271604938272,0,0)" xlink:href="#X"/><use transform="matrix(0.04938271604938272,0,0,0.04938271604938272,11.851851851851853,0)" xlink:href="#Y"/><use transform="matrix(0.04938271604938272,0,0,0.04938271604938272,21.7283950617284,0)" xlink:href="#U"/><use transform="matrix(0.04938271604938272,0,0,0.04938271604938272,26.666666666666668,0)" xlink:href="#Z"/><use transform="matrix(0.04938271604938272,0,0,0.04938271604938272,36.543209876543216,0)" xlink:href="#W"/></g><path fill="#3a414a" d="M24-231v-30h32v30H24zM24 0v-190h32V0H24" id="aa"/><path fill="#3a414a" d="M115-194c55 1 70 41 70 98S169 2 115 4C84 4 66-9 55-30l1 105H24l-1-265h31l2 30c10-21 28-34 59-34zm-8 174c40 0 45-34 45-75s-6-73-45-74c-42 0-51 32-51 76 0 43 10 73 51 73" id="ab"/><path fill="#3a414a" d="M84 4C-5 8 30-112 23-190h32v120c0 31 7 50 39 49 72-2 45-101 50-169h31l1 190h-30c-1-10 1-25-2-33-11 22-28 36-60 37" id="ac"/><g id="f"><use transform="matrix(0.04938271604938272,0,0,0.04938271604938272,0,0)" xlink:href="#aa"/><use transform="matrix(0.04938271604938272,0,0,0.04938271604938272,3.901234567901235,0)" xlink:href="#Y"/><use transform="matrix(0.04938271604938272,0,0,0.04938271604938272,13.777777777777779,0)" xlink:href="#ab"/><use transform="matrix(0.04938271604938272,0,0,0.04938271604938272,23.654320987654323,0)" xlink:href="#ac"/><use transform="matrix(0.04938271604938272,0,0,0.04938271604938272,33.53086419753087,0)" xlink:href="#U"/></g><path fill="#3a414a" d="M85-194c31 0 48 13 60 33l-1-100h32l1 261h-30c-2-10 0-23-3-31C134-8 116 4 85 4 32 4 16-35 15-94c0-66 23-100 70-100zm9 24c-40 0-46 34-46 75 0 40 6 74 45 74 42 0 51-32 51-76 0-42-9-74-50-73" id="ad"/><path fill="#3a414a" d="M141-36C126-15 110 5 73 4 37 3 15-17 15-53c-1-64 63-63 125-63 3-35-9-54-41-54-24 1-41 7-42 31l-33-3c5-37 33-52 76-52 45 0 72 20 72 64v82c-1 20 7 32 28 27v20c-31 9-61-2-59-35zM48-53c0 20 12 33 32 33 41-3 63-29 60-74-43 2-92-5-92 41" id="ae"/><g id="g"><use transform="matrix(0.04938271604938272,0,0,0.04938271604938272,0,0)" xlink:href="#ad"/><use transform="matrix(0.04938271604938272,0,0,0.04938271604938272,9.876543209876544,0)" xlink:href="#ae"/><use transform="matrix(0.04938271604938272,0,0,0.04938271604938272,19.75308641975309,0)" xlink:href="#U"/><use transform="matrix(0.04938271604938272,0,0,0.04938271604938272,24.69135802469136,0)" xlink:href="#ae"/></g><path fill="#3a414a" d="M137 0h-34L2-248h35l83 218 83-218h36" id="af"/><path fill="#3a414a" d="M24 0v-261h32V0H24" id="ag"/><g id="h"><use transform="matrix(0.05,0,0,0.05,0,0)" xlink:href="#af"/><use transform="matrix(0.05,0,0,0.05,10.65,0)" xlink:href="#ae"/><use transform="matrix(0.05,0,0,0.05,20.65,0)" xlink:href="#ag"/><use transform="matrix(0.05,0,0,0.05,24.599999999999998,0)" xlink:href="#aa"/><use transform="matrix(0.05,0,0,0.05,28.549999999999997,0)" xlink:href="#ad"/><use transform="matrix(0.05,0,0,0.05,38.55,0)" xlink:href="#ae"/><use transform="matrix(0.05,0,0,0.05,48.55,0)" xlink:href="#U"/><use transform="matrix(0.05,0,0,0.05,53.54999999999999,0)" xlink:href="#Z"/></g><path fill="#3a414a" d="M135-143c-3-34-86-38-87 0 15 53 115 12 119 90S17 21 10-45l28-5c4 36 97 45 98 0-10-56-113-15-118-90-4-57 82-63 122-42 12 7 21 19 24 35" id="ah"/><g id="i"><use transform="matrix(0.05,0,0,0.05,0,0)" xlink:href="#ac"/><use transform="matrix(0.05,0,0,0.05,10,0)" xlink:href="#ah"/><use transform="matrix(0.05,0,0,0.05,19,0)" xlink:href="#Z"/><use transform="matrix(0.05,0,0,0.05,29,0)" xlink:href="#W"/></g><g id="j"><use transform="matrix(0.05,0,0,0.05,0,0)" xlink:href="#aa"/><use transform="matrix(0.05,0,0,0.05,3.95,0)" xlink:href="#Y"/><use transform="matrix(0.05,0,0,0.05,13.949999999999998,0)" xlink:href="#ab"/><use transform="matrix(0.05,0,0,0.05,23.95,0)" xlink:href="#ac"/><use transform="matrix(0.05,0,0,0.05,33.95,0)" xlink:href="#U"/><use transform="matrix(0.05,0,0,0.05,38.95,0)" xlink:href="#ah"/></g><path fill="#3a414a" d="M30-248c87 1 191-15 191 75 0 78-77 80-158 76V0H30v-248zm33 125c57 0 124 11 124-50 0-59-68-47-124-48v98" id="ai"/><path fill="#3a414a" d="M101-234c-31-9-42 10-38 44h38v23H63V0H32v-167H5v-23h27c-7-52 17-82 69-68v24" id="aj"/><path fill="#3a414a" d="M210-169c-67 3-38 105-44 169h-31v-121c0-29-5-50-35-48C34-165 62-65 56 0H25l-1-190h30c1 10-1 24 2 32 10-44 99-50 107 0 11-21 27-35 58-36 85-2 47 119 55 194h-31v-121c0-29-5-49-35-48" id="ak"/><g id="k"><use transform="matrix(0.05,0,0,0.05,0,0)" xlink:href="#ai"/><use transform="matrix(0.05,0,0,0.05,12,0)" xlink:href="#Z"/><use transform="matrix(0.05,0,0,0.05,22,0)" xlink:href="#W"/><use transform="matrix(0.05,0,0,0.05,27.950000000000003,0)" xlink:href="#aj"/><use transform="matrix(0.05,0,0,0.05,32.95,0)" xlink:href="#V"/><use transform="matrix(0.05,0,0,0.05,42.95,0)" xlink:href="#W"/><use transform="matrix(0.05,0,0,0.05,48.900000000000006,0)" xlink:href="#ak"/></g><path fill="#3a414a" d="M179-190L93 31C79 59 56 82 12 73V49c39 6 53-20 64-50L1-190h34L92-34l54-156h33" id="al"/><g id="l"><use transform="matrix(0.05,0,0,0.05,0,0)" xlink:href="#Y"/><use transform="matrix(0.05,0,0,0.05,10,0)" xlink:href="#Z"/><use transform="matrix(0.05,0,0,0.05,20,0)" xlink:href="#T"/><use transform="matrix(0.05,0,0,0.05,29,0)" xlink:href="#Z"/><use transform="matrix(0.05,0,0,0.05,39,0)" xlink:href="#ah"/><use transform="matrix(0.05,0,0,0.05,48,0)" xlink:href="#ah"/><use transform="matrix(0.05,0,0,0.05,57,0)" xlink:href="#ae"/><use transform="matrix(0.05,0,0,0.05,67,0)" xlink:href="#W"/><use transform="matrix(0.05,0,0,0.05,72.95,0)" xlink:href="#al"/></g><g id="m"><use transform="matrix(0.05,0,0,0.05,0,0)" xlink:href="#T"/><use transform="matrix(0.05,0,0,0.05,9,0)" xlink:href="#ae"/><use transform="matrix(0.05,0,0,0.05,19,0)" xlink:href="#ag"/><use transform="matrix(0.05,0,0,0.05,22.95,0)" xlink:href="#T"/><use transform="matrix(0.05,0,0,0.05,31.950000000000003,0)" xlink:href="#ac"/><use transform="matrix(0.05,0,0,0.05,41.95,0)" xlink:href="#ag"/><use transform="matrix(0.05,0,0,0.05,45.900000000000006,0)" xlink:href="#ae"/><use transform="matrix(0.05,0,0,0.05,55.900000000000006,0)" xlink:href="#U"/><use transform="matrix(0.05,0,0,0.05,60.900000000000006,0)" xlink:href="#aa"/><use transform="matrix(0.05,0,0,0.05,64.85000000000001,0)" xlink:href="#V"/><use transform="matrix(0.05,0,0,0.05,74.85000000000001,0)" xlink:href="#Y"/><use transform="matrix(0.05,0,0,0.05,84.85000000000001,0)" xlink:href="#ah"/></g><path fill="#3a414a" d="M185-189c-5-48-123-54-124 2 14 75 158 14 163 119 3 78-121 87-175 55-17-10-28-26-33-46l33-7c5 56 141 63 141-1 0-78-155-14-162-118-5-82 145-84 179-34 5 7 8 16 11 25" id="am"/><g id="n"><use transform="matrix(0.05,0,0,0.05,0,0)" xlink:href="#am"/><use transform="matrix(0.05,0,0,0.05,12,0)" xlink:href="#Z"/><use transform="matrix(0.05,0,0,0.05,22,0)" xlink:href="#Y"/><use transform="matrix(0.05,0,0,0.05,32,0)" xlink:href="#ad"/></g><g id="o"><use transform="matrix(0.05,0,0,0.05,0,0)" xlink:href="#T"/><use transform="matrix(0.05,0,0,0.05,9,0)" xlink:href="#ae"/><use transform="matrix(0.05,0,0,0.05,19,0)" xlink:href="#ag"/><use transform="matrix(0.05,0,0,0.05,22.95,0)" xlink:href="#T"/><use transform="matrix(0.05,0,0,0.05,31.950000000000003,0)" xlink:href="#ac"/><use transform="matrix(0.05,0,0,0.05,41.95,0)" xlink:href="#ag"/><use transform="matrix(0.05,0,0,0.05,45.900000000000006,0)" xlink:href="#ae"/><use transform="matrix(0.05,0,0,0.05,55.900000000000006,0)" xlink:href="#U"/><use transform="matrix(0.05,0,0,0.05,60.900000000000006,0)" xlink:href="#Z"/><use transform="matrix(0.05,0,0,0.05,70.9,0)" xlink:href="#ad"/></g><path fill="#3a414a" d="M108 0H70L1-190h34L89-25l56-165h34" id="an"/><g id="p"><use transform="matrix(0.05,0,0,0.05,0,0)" xlink:href="#an"/><use transform="matrix(0.05,0,0,0.05,9,0)" xlink:href="#ae"/><use transform="matrix(0.05,0,0,0.05,19,0)" xlink:href="#ag"/><use transform="matrix(0.05,0,0,0.05,22.95,0)" xlink:href="#ac"/><use transform="matrix(0.05,0,0,0.05,32.95,0)" xlink:href="#Z"/><use transform="matrix(0.05,0,0,0.05,42.95,0)" xlink:href="#ah"/></g><path fill="#3a414a" d="M233-177c-1 41-23 64-60 70L243 0h-38l-65-103H63V0H30v-248c88 3 205-21 203 71zM63-129c60-2 137 13 137-47 0-61-80-42-137-45v92" id="ao"/><g id="q"><use transform="matrix(0.05,0,0,0.05,0,0)" xlink:href="#ao"/><use transform="matrix(0.05,0,0,0.05,12.950000000000001,0)" xlink:href="#ac"/><use transform="matrix(0.05,0,0,0.05,22.950000000000003,0)" xlink:href="#Y"/></g><path fill="#3a414a" d="M106-169C34-169 62-67 57 0H25v-261h32l-1 103c12-21 28-36 61-36 89 0 53 116 60 194h-32v-121c2-32-8-49-39-48" id="ap"/><g id="r"><use transform="matrix(0.05,0,0,0.05,0,0)" xlink:href="#ah"/><use transform="matrix(0.05,0,0,0.05,9,0)" xlink:href="#U"/><use transform="matrix(0.05,0,0,0.05,14,0)" xlink:href="#V"/><use transform="matrix(0.05,0,0,0.05,24,0)" xlink:href="#T"/><use transform="matrix(0.05,0,0,0.05,33,0)" xlink:href="#ap"/><use transform="matrix(0.05,0,0,0.05,43,0)" xlink:href="#ae"/><use transform="matrix(0.05,0,0,0.05,53,0)" xlink:href="#ah"/><use transform="matrix(0.05,0,0,0.05,62,0)" xlink:href="#U"/><use transform="matrix(0.05,0,0,0.05,67,0)" xlink:href="#aa"/><use transform="matrix(0.05,0,0,0.05,70.95,0)" xlink:href="#T"/></g><g id="s"><use transform="matrix(0.05,0,0,0.05,0,0)" xlink:href="#ah"/><use transform="matrix(0.05,0,0,0.05,9,0)" xlink:href="#aa"/><use transform="matrix(0.05,0,0,0.05,12.949999999999998,0)" xlink:href="#ak"/><use transform="matrix(0.05,0,0,0.05,27.899999999999995,0)" xlink:href="#ac"/><use transform="matrix(0.05,0,0,0.05,37.9,0)" xlink:href="#ag"/><use transform="matrix(0.05,0,0,0.05,41.85,0)" xlink:href="#ae"/><use transform="matrix(0.05,0,0,0.05,51.85,0)" xlink:href="#U"/><use transform="matrix(0.05,0,0,0.05,56.85,0)" xlink:href="#aa"/><use transform="matrix(0.05,0,0,0.05,60.800000000000004,0)" xlink:href="#V"/><use transform="matrix(0.05,0,0,0.05,70.80000000000001,0)" xlink:href="#Y"/></g><g id="t"><use transform="matrix(0.05,0,0,0.05,0,0)" xlink:href="#ao"/><use transform="matrix(0.05,0,0,0.05,12.950000000000001,0)" xlink:href="#Z"/><use transform="matrix(0.05,0,0,0.05,22.950000000000003,0)" xlink:href="#U"/><use transform="matrix(0.05,0,0,0.05,27.950000000000003,0)" xlink:href="#ac"/><use transform="matrix(0.05,0,0,0.05,37.95,0)" xlink:href="#W"/><use transform="matrix(0.05,0,0,0.05,43.900000000000006,0)" xlink:href="#Y"/></g><g id="u"><use transform="matrix(0.05,0,0,0.05,0,0)" xlink:href="#ae"/><use transform="matrix(0.05,0,0,0.05,10,0)" xlink:href="#W"/><use transform="matrix(0.05,0,0,0.05,15.949999999999998,0)" xlink:href="#W"/><use transform="matrix(0.05,0,0,0.05,21.9,0)" xlink:href="#ae"/><use transform="matrix(0.05,0,0,0.05,31.899999999999995,0)" xlink:href="#al"/></g><g id="v"><use transform="matrix(0.05,0,0,0.05,0,0)" xlink:href="#V"/><use transform="matrix(0.05,0,0,0.05,10,0)" xlink:href="#aj"/></g><g id="w"><use transform="matrix(0.05,0,0,0.05,0,0)" xlink:href="#an"/><use transform="matrix(0.05,0,0,0.05,9,0)" xlink:href="#ae"/><use transform="matrix(0.05,0,0,0.05,19,0)" xlink:href="#ag"/><use transform="matrix(0.05,0,0,0.05,22.95,0)" xlink:href="#ac"/><use transform="matrix(0.05,0,0,0.05,32.95,0)" xlink:href="#Z"/><use transform="matrix(0.05,0,0,0.05,42.95,0)" xlink:href="#ah"/></g><g id="x"><use transform="matrix(0.05,0,0,0.05,0,0)" xlink:href="#aj"/><use transform="matrix(0.05,0,0,0.05,5,0)" xlink:href="#V"/><use transform="matrix(0.05,0,0,0.05,15,0)" xlink:href="#W"/></g><g id="y"><use transform="matrix(0.05,0,0,0.05,0,0)" xlink:href="#T"/><use transform="matrix(0.05,0,0,0.05,9,0)" xlink:href="#ap"/><use transform="matrix(0.05,0,0,0.05,19,0)" xlink:href="#ae"/><use transform="matrix(0.05,0,0,0.05,29,0)" xlink:href="#W"/><use transform="matrix(0.05,0,0,0.05,34.95,0)" xlink:href="#U"/><use transform="matrix(0.05,0,0,0.05,39.95,0)" xlink:href="#ah"/></g><path fill="#3a414a" d="M177-190C167-65 218 103 67 71c-23-6-38-20-44-43l32-5c15 47 100 32 89-28v-30C133-14 115 1 83 1 29 1 15-40 15-95c0-56 16-97 71-98 29-1 48 16 59 35 1-10 0-23 2-32h30zM94-22c36 0 50-32 50-73 0-42-14-75-50-75-39 0-46 34-46 75s6 73 46 73" id="aq"/><g id="z"><use transform="matrix(0.05,0,0,0.05,0,0)" xlink:href="#aq"/><use transform="matrix(0.05,0,0,0.05,10,0)" xlink:href="#W"/><use transform="matrix(0.05,0,0,0.05,15.949999999999998,0)" xlink:href="#ae"/><use transform="matrix(0.05,0,0,0.05,25.950000000000003,0)" xlink:href="#ab"/><use transform="matrix(0.05,0,0,0.05,35.95,0)" xlink:href="#ap"/></g><g id="A"><use transform="matrix(0.05,0,0,0.05,0,0)" xlink:href="#aa"/><use transform="matrix(0.05,0,0,0.05,3.95,0)" xlink:href="#Y"/><use transform="matrix(0.05,0,0,0.05,13.949999999999998,0)" xlink:href="#aj"/><use transform="matrix(0.05,0,0,0.05,18.95,0)" xlink:href="#V"/><use transform="matrix(0.05,0,0,0.05,28.950000000000003,0)" xlink:href="#W"/><use transform="matrix(0.05,0,0,0.05,34.9,0)" xlink:href="#ak"/><use transform="matrix(0.05,0,0,0.05,49.85,0)" xlink:href="#ae"/><use transform="matrix(0.05,0,0,0.05,59.85,0)" xlink:href="#U"/><use transform="matrix(0.05,0,0,0.05,64.85,0)" xlink:href="#aa"/><use transform="matrix(0.05,0,0,0.05,68.8,0)" xlink:href="#V"/><use transform="matrix(0.05,0,0,0.05,78.8,0)" xlink:href="#Y"/></g><path fill="#3a414a" d="M30-248c118-7 216 8 213 122C240-48 200 0 122 0H30v-248zM63-27c89 8 146-16 146-99s-60-101-146-95v194" id="ar"/><g id="B"><use transform="matrix(0.05,0,0,0.05,0,0)" xlink:href="#ar"/><use transform="matrix(0.05,0,0,0.05,12.950000000000001,0)" xlink:href="#aa"/><use transform="matrix(0.05,0,0,0.05,16.900000000000002,0)" xlink:href="#ah"/><use transform="matrix(0.05,0,0,0.05,25.900000000000002,0)" xlink:href="#ab"/><use transform="matrix(0.05,0,0,0.05,35.900000000000006,0)" xlink:href="#ag"/><use transform="matrix(0.05,0,0,0.05,39.85000000000001,0)" xlink:href="#ae"/><use transform="matrix(0.05,0,0,0.05,49.85000000000001,0)" xlink:href="#al"/></g><path fill="#3a414a" d="M30 0v-248h33v221h125V0H30" id="as"/><g id="C"><use transform="matrix(0.05,0,0,0.05,0,0)" xlink:href="#ai"/><use transform="matrix(0.05,0,0,0.05,12,0)" xlink:href="#Y"/><use transform="matrix(0.05,0,0,0.05,22,0)" xlink:href="#as"/></g><g id="D"><use transform="matrix(0.05,0,0,0.05,0,0)" xlink:href="#U"/><use transform="matrix(0.05,0,0,0.05,5,0)" xlink:href="#W"/><use transform="matrix(0.05,0,0,0.05,10.95,0)" xlink:href="#ae"/><use transform="matrix(0.05,0,0,0.05,20.95,0)" xlink:href="#ad"/><use transform="matrix(0.05,0,0,0.05,30.950000000000003,0)" xlink:href="#aa"/><use transform="matrix(0.05,0,0,0.05,34.9,0)" xlink:href="#Y"/><use transform="matrix(0.05,0,0,0.05,44.9,0)" xlink:href="#aq"/></g></defs></g></svg>